REM DIRINDEX 1\6,1\2\7,1\2\8,1\2\9,1\3\10,1\3\11,1\4\12,1\4\13,1\4\14,1\5\15,1\5\16,1\5\17
REM DIRNAME folder01,folder02,folder03,folder04,folder05,folder06,folder07,folder08,folder09,folder10,folder11,folder12,folder13,folder14,folder15,folder16,folder17
TITLE ""
FILE "3Q_j_1245-1260.mp3" MP3
  TRACK 01 AUDIO
    TITLE "12:cjc041_1035"
    INDEX 01 00:00:00
  TRACK 02 AUDIO
    TITLE "0:"
    INDEX 01 00:01:17
  TRACK 03 AUDIO
    TITLE "13:cjc041_1036"
    INDEX 01 00:01:69
  TRACK 04 AUDIO
    TITLE "0:"
    INDEX 01 00:04:25
  TRACK 05 AUDIO
    TITLE "14:cjc041_1037"
    INDEX 01 00:05:05
  TRACK 06 AUDIO
    TITLE "0:"
    INDEX 01 00:07:72
  TRACK 07 AUDIO
    TITLE "12:cjc041_1038"
    INDEX 01 00:08:46
  TRACK 08 AUDIO
    TITLE "0:"
    INDEX 01 00:10:66
  TRACK 09 AUDIO
    TITLE "13:cjc041_1039"
    INDEX 01 00:11:42
  TRACK 10 AUDIO
    TITLE "0:"
    INDEX 01 00:13:24
  TRACK 11 AUDIO
    TITLE "14:cjc041_1040"
    INDEX 01 00:14:11
  TRACK 12 AUDIO
    TITLE "0:"
    INDEX 01 00:17:04
  TRACK 13 AUDIO
    TITLE "12:cjc041_1041"
    INDEX 01 00:17:61
  TRACK 14 AUDIO
    TITLE "0:"
    INDEX 01 00:19:09
  TRACK 15 AUDIO
    TITLE "13:cjc041_1042"
    INDEX 01 00:19:63
  TRACK 16 AUDIO
    TITLE "0:"
    INDEX 01 00:20:69
  TRACK 17 AUDIO
    TITLE "14:cjc041_1043"
    INDEX 01 00:21:43
  TRACK 18 AUDIO
    TITLE "0:"
    INDEX 01 00:24:65
  TRACK 19 AUDIO
    TITLE "12:cjc041_1044"
    INDEX 01 00:25:39
  TRACK 20 AUDIO
    TITLE "0:"
    INDEX 01 00:27:20
  TRACK 21 AUDIO
    TITLE "13:cjc041_1045"
    INDEX 01 00:27:73
  TRACK 22 AUDIO
    TITLE "0:"
    INDEX 01 00:29:25
  TRACK 23 AUDIO
    TITLE "14:cjc041_1046"
    INDEX 01 00:30:03
  TRACK 24 AUDIO
    TITLE "0:"
    INDEX 01 00:35:35
  TRACK 25 AUDIO
    TITLE "12:cjc041_1047"
    INDEX 01 00:36:15
  TRACK 26 AUDIO
    TITLE "0:"
    INDEX 01 00:37:50
  TRACK 27 AUDIO
    TITLE "13:cjc041_1048"
    INDEX 01 00:38:24
  TRACK 28 AUDIO
    TITLE "0:"
    INDEX 01 00:39:68
  TRACK 29 AUDIO
    TITLE "14:cjc041_1049"
    INDEX 01 00:40:42
  TRACK 30 AUDIO
    TITLE "0:"
    INDEX 01 00:43:23
  TRACK 31 AUDIO
    TITLE "12:cjc041_1050"
    INDEX 01 00:44:01
  TRACK 32 AUDIO
    TITLE "0:"
    INDEX 01 00:45:57
  TRACK 33 AUDIO
    TITLE "13:cjc041_1051"
    INDEX 01 00:46:33
  TRACK 34 AUDIO
    TITLE "0:"
    INDEX 01 00:47:44
  TRACK 35 AUDIO
    TITLE "14:cjc041_1052"
    INDEX 01 00:48:20
  TRACK 36 AUDIO
    TITLE "0:"
    INDEX 01 00:52:65
  TRACK 37 AUDIO
    TITLE "12:cjc041_1053"
    INDEX 01 00:53:41
  TRACK 38 AUDIO
    TITLE "0:"
    INDEX 01 00:55:06
  TRACK 39 AUDIO
    TITLE "13:cjc041_1054"
    INDEX 01 00:55:61
  TRACK 40 AUDIO
    TITLE "0:"
    INDEX 01 00:58:01
  TRACK 41 AUDIO
    TITLE "14:cjc041_1055"
    INDEX 01 00:58:60
  TRACK 42 AUDIO
    TITLE "0:"
    INDEX 01 01:02:16
  TRACK 43 AUDIO
    TITLE "12:cjc041_1056"
    INDEX 01 01:02:65
  TRACK 44 AUDIO
    TITLE "0:"
    INDEX 01 01:04:23
  TRACK 45 AUDIO
    TITLE "13:cjc041_1057"
    INDEX 01 01:05:05
  TRACK 46 AUDIO
    TITLE "0:"
    INDEX 01 01:06:26
  TRACK 47 AUDIO
    TITLE "14:cjc041_1058"
    INDEX 01 01:07:06
  TRACK 48 AUDIO
    TITLE "0:"
    INDEX 01 01:11:35
  TRACK 49 AUDIO
    TITLE "12:cjc041_1059"
    INDEX 01 01:12:13
  TRACK 50 AUDIO
    TITLE "0:"
    INDEX 01 01:14:06
  TRACK 51 AUDIO
    TITLE "13:cjc041_1060"
    INDEX 01 01:14:65
  TRACK 52 AUDIO
    TITLE "0:"
    INDEX 01 01:16:16
  TRACK 53 AUDIO
    TITLE "14:cjc041_1061"
    INDEX 01 01:16:69
  TRACK 54 AUDIO
    TITLE "0:"
    INDEX 01 01:21:20
  TRACK 55 AUDIO
    TITLE "12:cjc041_1062"
    INDEX 01 01:22:01
  TRACK 56 AUDIO
    TITLE "0:"
    INDEX 01 01:23:28
  TRACK 57 AUDIO
    TITLE "13:cjc041_1063"
    INDEX 01 01:24:06
  TRACK 58 AUDIO
    TITLE "0:"
    INDEX 01 01:25:19
  TRACK 59 AUDIO
    TITLE "14:cjc041_1064"
    INDEX 01 01:25:74
  TRACK 60 AUDIO
    TITLE "0:"
    INDEX 01 01:29:07
  TRACK 61 AUDIO
    TITLE "12:cjc041_1065"
    INDEX 01 01:29:64
  TRACK 62 AUDIO
    TITLE "0:"
    INDEX 01 01:32:60
  TRACK 63 AUDIO
    TITLE "13:cjc041_1066"
    INDEX 01 01:33:42
  TRACK 64 AUDIO
    TITLE "0:"
    INDEX 01 01:38:12
  TRACK 65 AUDIO
    TITLE "14:cjc041_1067"
    INDEX 01 01:38:63
  TRACK 66 AUDIO
    TITLE "0:"
    INDEX 01 01:44:03
  TRACK 67 AUDIO
    TITLE "12:cjc041_1068"
    INDEX 01 01:44:62
  TRACK 68 AUDIO
    TITLE "0:"
    INDEX 01 01:46:39
  TRACK 69 AUDIO
    TITLE "13:cjc041_1069"
    INDEX 01 01:47:21
  TRACK 70 AUDIO
    TITLE "0:"
    INDEX 01 01:49:37
  TRACK 71 AUDIO
    TITLE "14:cjc041_1070"
    INDEX 01 01:50:15
  TRACK 72 AUDIO
    TITLE "0:"
    INDEX 01 01:54:35
  TRACK 73 AUDIO
    TITLE "12:cjc041_1071"
    INDEX 01 01:55:20
  TRACK 74 AUDIO
    TITLE "0:"
    INDEX 01 01:56:71
  TRACK 75 AUDIO
    TITLE "13:cjc041_1072"
    INDEX 01 01:57:51
  TRACK 76 AUDIO
    TITLE "0:"
    INDEX 01 01:59:61
  TRACK 77 AUDIO
    TITLE "14:cjc041_1073"
    INDEX 01 02:00:39
  TRACK 78 AUDIO
    TITLE "0:"
    INDEX 01 02:03:45
  TRACK 79 AUDIO
    TITLE "12:cjc041_1074"
    INDEX 01 02:04:27
  TRACK 80 AUDIO
    TITLE "0:"
    INDEX 01 02:05:64
  TRACK 81 AUDIO
    TITLE "13:cjc041_1075"
    INDEX 01 02:06:42
  TRACK 82 AUDIO
    TITLE "0:"
    INDEX 01 02:07:53
  TRACK 83 AUDIO
    TITLE "14:cjc041_1076"
    INDEX 01 02:08:35
  TRACK 84 AUDIO
    TITLE "0:"
    INDEX 01 02:11:63
  TRACK 85 AUDIO
    TITLE "12:cjc041_1077"
    INDEX 01 02:12:44
  TRACK 86 AUDIO
    TITLE "0:"
    INDEX 01 02:14:24
  TRACK 87 AUDIO
    TITLE "13:cjc041_1078"
    INDEX 01 02:15:02
  TRACK 88 AUDIO
    TITLE "0:"
    INDEX 01 02:16:50
  TRACK 89 AUDIO
    TITLE "14:cjc041_1079"
    INDEX 01 02:17:30
  TRACK 90 AUDIO
    TITLE "0:"
    INDEX 01 02:20:38
  TRACK 91 AUDIO
    TITLE "12:cjc041_1080"
    INDEX 01 02:21:18
  TRACK 92 AUDIO
    TITLE "0:"
    INDEX 01 02:23:27
  TRACK 93 AUDIO
    TITLE "13:cjc041_1081"
    INDEX 01 02:24:06
  TRACK 94 AUDIO
    TITLE "0:"
    INDEX 01 02:27:16
  TRACK 95 AUDIO
    TITLE "14:cjc041_1082"
    INDEX 01 02:27:69
  TRACK 96 AUDIO
    TITLE "0:"
    INDEX 01 02:31:57
